<?xml version="1.0" standalone="no"?><!DOCTYPE svg PUBLIC "-//W3C//DTD SVG 1.1//EN" "http://www.w3.org/Graphics/SVG/1.1/DTD/svg11.dtd"><svg t="1489327895930" class="icon" style="" viewBox="0 0 1024 1024" version="1.1" xmlns="http://www.w3.org/2000/svg" p-id="2145" xmlns:xlink="http://www.w3.org/1999/xlink" width="200" height="200"><defs><style type="text/css"></style></defs><path d="M826.435389 764.674767 573.894675 512.134053l252.540713-252.540713c17.424858-17.424858 17.424858-45.710065 0-63.134923s-45.710065-17.424858-63.134923 0L510.759753 448.998107 258.219039 196.457394c-17.424858-17.424858-45.710065-17.424858-63.134923 0s-17.424858 45.710065 0 63.134923l252.540713 252.540713L195.084117 764.674767c-17.45658 17.45658-17.424858 45.710065 0 63.134923s45.678342 17.45658 63.134923 0l252.540713-252.540713 252.540713 252.540713c17.45658 17.45658 45.710065 17.424858 63.134923 0S843.892993 782.131347 826.435389 764.674767z" p-id="2146" fill="#8a8a8a"></path></svg>